<?xml version="1.0" encoding="UTF-8"?>
<svg xmlns="http://www.w3.org/2000/svg" viewBox="0 0 1400 1400" preserveAspectRatio="xMidYMid meet"><path d="M 678.0,42.0 L 680.0,42.0 L 680.0,385.0 L 671.0,397.0 L 662.0,408.0 L 650.0,424.0 L 640.0,437.0 L 631.0,448.0 L 624.0,458.0 L 614.0,470.0 L 606.0,481.0 L 594.0,496.0 L 582.0,512.0 L 570.0,527.0 L 558.0,543.0 L 550.0,553.0 L 543.0,562.0 L 532.0,576.0 L 523.0,588.0 L 512.0,602.0 L 505.0,611.0 L 493.0,627.0 L 479.0,645.0 L 467.0,660.0 L 452.0,680.0 L 441.0,694.0 L 433.0,704.0 L 420.0,721.0 L 408.0,736.0 L 398.0,749.0 L 396.0,751.0 L 396.0,951.0 L 401.0,946.0 L 407.0,938.0 L 416.0,928.0 L 424.0,918.0 L 435.0,905.0 L 446.0,891.0 L 456.0,880.0 L 463.0,872.0 L 474.0,858.0 L 484.0,847.0 L 492.0,837.0 L 502.0,826.0 L 513.0,812.0 L 523.0,801.0 L 524.0,799.0 L 526.0,799.0 L 528.0,795.0 L 540.0,781.0 L 549.0,770.0 L 558.0,760.0 L 565.0,752.0 L 576.0,739.0 L 583.0,731.0 L 594.0,718.0 L 601.0,709.0 L 603.0,709.0 L 605.0,705.0 L 616.0,691.0 L 628.0,678.0 L 637.0,667.0 L 648.0,654.0 L 656.0,644.0 L 665.0,634.0 L 674.0,623.0 L 681.0,614.0 L 683.0,614.0 L 685.0,610.0 L 695.0,598.0 L 702.0,590.0 L 707.0,591.0 L 716.0,602.0 L 729.0,617.0 L 738.0,628.0 L 745.0,636.0 L 752.0,644.0 L 763.0,657.0 L 772.0,668.0 L 781.0,678.0 L 790.0,689.0 L 799.0,699.0 L 806.0,708.0 L 817.0,720.0 L 820.0,724.0 L 820.0,726.0 L 822.0,726.0 L 831.0,737.0 L 840.0,748.0 L 852.0,762.0 L 861.0,772.0 L 868.0,780.0 L 874.0,787.0 L 874.0,789.0 L 876.0,789.0 L 884.0,799.0 L 893.0,810.0 L 895.0,814.0 L 897.0,814.0 L 906.0,825.0 L 915.0,835.0 L 924.0,846.0 L 936.0,860.0 L 945.0,871.0 L 946.0,874.0 L 948.0,874.0 L 956.0,884.0 L 957.0,887.0 L 959.0,887.0 L 968.0,898.0 L 979.0,911.0 L 992.0,926.0 L 999.0,934.0 L 1010.0,947.0 L 1016.0,954.0 L 1016.0,956.0 L 1018.0,956.0 L 1027.0,967.0 L 1029.0,971.0 L 1033.0,971.0 L 1033.0,931.0 L 1035.0,896.0 L 1035.0,783.0 L 1026.0,771.0 L 1017.0,759.0 L 1009.0,749.0 L 997.0,733.0 L 989.0,723.0 L 981.0,712.0 L 974.0,703.0 L 974.0,701.0 L 972.0,701.0 L 963.0,689.0 L 953.0,676.0 L 941.0,661.0 L 933.0,650.0 L 919.0,632.0 L 909.0,619.0 L 897.0,604.0 L 886.0,589.0 L 873.0,572.0 L 863.0,559.0 L 851.0,544.0 L 838.0,527.0 L 830.0,517.0 L 820.0,504.0 L 810.0,491.0 L 803.0,482.0 L 793.0,469.0 L 785.0,459.0 L 772.0,442.0 L 762.0,429.0 L 752.0,416.0 L 746.0,408.0 L 737.0,396.0 L 729.0,386.0 L 728.0,381.0 L 728.0,44.0 L 732.0,45.0 L 744.0,61.0 L 754.0,74.0 L 765.0,89.0 L 779.0,107.0 L 795.0,128.0 L 809.0,147.0 L 822.0,164.0 L 836.0,182.0 L 847.0,196.0 L 861.0,215.0 L 872.0,229.0 L 882.0,242.0 L 894.0,258.0 L 908.0,276.0 L 910.0,281.0 L 912.0,281.0 L 922.0,295.0 L 936.0,313.0 L 951.0,333.0 L 962.0,347.0 L 973.0,361.0 L 985.0,377.0 L 985.0,379.0 L 987.0,379.0 L 996.0,391.0 L 1008.0,406.0 L 1018.0,420.0 L 1029.0,434.0 L 1042.0,451.0 L 1055.0,468.0 L 1065.0,481.0 L 1077.0,496.0 L 1089.0,512.0 L 1099.0,525.0 L 1113.0,544.0 L 1121.0,554.0 L 1134.0,571.0 L 1144.0,584.0 L 1153.0,596.0 L 1164.0,610.0 L 1177.0,628.0 L 1190.0,644.0 L 1203.0,662.0 L 1217.0,680.0 L 1229.0,696.0 L 1239.0,710.0 L 1240.0,718.0 L 1240.0,1208.0 L 1239.0,1360.0 L 1234.0,1359.0 L 1213.0,1348.0 L 1201.0,1341.0 L 1185.0,1333.0 L 1157.0,1318.0 L 1138.0,1308.0 L 1124.0,1301.0 L 1114.0,1295.0 L 1102.0,1289.0 L 1083.0,1279.0 L 1060.0,1267.0 L 1041.0,1257.0 L 1019.0,1245.0 L 997.0,1234.0 L 978.0,1224.0 L 964.0,1217.0 L 957.0,1213.0 L 951.0,1206.0 L 951.0,1204.0 L 949.0,1204.0 L 940.0,1193.0 L 929.0,1180.0 L 917.0,1166.0 L 905.0,1152.0 L 894.0,1139.0 L 885.0,1128.0 L 874.0,1116.0 L 865.0,1105.0 L 856.0,1095.0 L 847.0,1084.0 L 845.0,1080.0 L 843.0,1080.0 L 834.0,1069.0 L 823.0,1056.0 L 814.0,1046.0 L 805.0,1035.0 L 796.0,1025.0 L 787.0,1014.0 L 774.0,999.0 L 763.0,987.0 L 756.0,979.0 L 748.0,969.0 L 737.0,957.0 L 728.0,946.0 L 719.0,936.0 L 711.0,926.0 L 707.0,922.0 L 706.0,920.0 L 702.0,920.0 L 695.0,928.0 L 686.0,938.0 L 677.0,949.0 L 665.0,963.0 L 656.0,973.0 L 649.0,982.0 L 647.0,982.0 L 645.0,986.0 L 636.0,997.0 L 634.0,1000.0 L 632.0,1000.0 L 630.0,1004.0 L 619.0,1016.0 L 610.0,1027.0 L 603.0,1036.0 L 598.0,1041.0 L 589.0,1051.0 L 580.0,1062.0 L 570.0,1073.0 L 561.0,1084.0 L 550.0,1096.0 L 541.0,1107.0 L 532.0,1117.0 L 528.0,1123.0 L 526.0,1123.0 L 524.0,1127.0 L 514.0,1138.0 L 505.0,1149.0 L 499.0,1157.0 L 487.0,1170.0 L 479.0,1180.0 L 474.0,1186.0 L 472.0,1186.0 L 470.0,1190.0 L 461.0,1201.0 L 450.0,1214.0 L 434.0,1222.0 L 407.0,1236.0 L 385.0,1248.0 L 362.0,1260.0 L 338.0,1272.0 L 316.0,1284.0 L 297.0,1294.0 L 285.0,1300.0 L 266.0,1310.0 L 238.0,1325.0 L 223.0,1333.0 L 207.0,1341.0 L 185.0,1353.0 L 172.0,1360.0 L 169.0,1359.0 L 168.0,1244.0 L 169.0,710.0 L 181.0,693.0 L 192.0,679.0 L 202.0,666.0 L 211.0,654.0 L 222.0,640.0 L 232.0,627.0 L 239.0,617.0 L 249.0,604.0 L 261.0,589.0 L 274.0,571.0 L 288.0,553.0 L 299.0,539.0 L 306.0,529.0 L 317.0,515.0 L 330.0,498.0 L 338.0,488.0 L 352.0,469.0 L 362.0,457.0 L 369.0,447.0 L 377.0,437.0 L 387.0,424.0 L 399.0,408.0 L 415.0,387.0 L 426.0,373.0 L 438.0,357.0 L 451.0,340.0 L 462.0,326.0 L 472.0,313.0 L 482.0,300.0 L 496.0,281.0 L 508.0,266.0 L 522.0,247.0 L 531.0,235.0 L 544.0,219.0 L 558.0,200.0 L 571.0,183.0 L 582.0,169.0 L 595.0,152.0 L 605.0,139.0 L 615.0,126.0 L 624.0,113.0 L 626.0,113.0 L 628.0,109.0 L 637.0,97.0 L 651.0,78.0 L 660.0,66.0 L 671.0,52.0 Z" fill="#C73526" fill-rule="evenodd"/></svg>